<mxfile host="app.diagrams.net" modified="2024-04-27T23:48:29.865Z" agent="Mozilla/5.0 (Macintosh; Intel Mac OS X 10_15_7) AppleWebKit/537.36 (KHTML, like Gecko) Chrome/123.0.0.0 Safari/537.36" etag="AdVPAhAysMLxcMzQxQtX" version="24.2.5" type="device">
  <diagram name="Page-1" id="W9qmtGiioo6NWyUTeyw0">
    <mxGraphModel dx="3191" dy="1763" grid="1" gridSize="10" guides="1" tooltips="1" connect="1" arrows="1" fold="1" page="1" pageScale="1" pageWidth="850" pageHeight="1100" math="0" shadow="0">
      <root>
        <mxCell id="0" />
        <mxCell id="1" parent="0" />
        <mxCell id="Tve4zQf0PNMW8JrAq_sR-3" style="edgeStyle=orthogonalEdgeStyle;rounded=0;orthogonalLoop=1;jettySize=auto;html=1;" parent="1" source="Tve4zQf0PNMW8JrAq_sR-1" edge="1">
          <mxGeometry relative="1" as="geometry">
            <mxPoint x="240" y="510" as="targetPoint" />
          </mxGeometry>
        </mxCell>
        <mxCell id="Tve4zQf0PNMW8JrAq_sR-1" value="Client" style="image;aspect=fixed;perimeter=ellipsePerimeter;html=1;align=center;shadow=0;dashed=0;spacingTop=3;image=img/lib/active_directory/vista_client.svg;" parent="1" vertex="1">
          <mxGeometry x="80" y="470" width="60.8" height="80" as="geometry" />
        </mxCell>
        <mxCell id="Tve4zQf0PNMW8JrAq_sR-2" value="Application load&lt;div&gt;Balancer&lt;/div&gt;" style="outlineConnect=0;dashed=0;verticalLabelPosition=bottom;verticalAlign=top;align=center;html=1;shape=mxgraph.aws3.application_load_balancer;fillColor=#F58534;gradientColor=none;" parent="1" vertex="1">
          <mxGeometry x="250" y="474" width="69" height="72" as="geometry" />
        </mxCell>
        <mxCell id="Tve4zQf0PNMW8JrAq_sR-6" value="" style="rounded=1;whiteSpace=wrap;html=1;dashed=1;" parent="1" vertex="1">
          <mxGeometry x="360" y="70" width="400" height="390" as="geometry" />
        </mxCell>
        <mxCell id="Tve4zQf0PNMW8JrAq_sR-4" value="EKS Cluster" style="sketch=0;points=[[0,0,0],[0.25,0,0],[0.5,0,0],[0.75,0,0],[1,0,0],[0,1,0],[0.25,1,0],[0.5,1,0],[0.75,1,0],[1,1,0],[0,0.25,0],[0,0.5,0],[0,0.75,0],[1,0.25,0],[1,0.5,0],[1,0.75,0]];outlineConnect=0;fontColor=#232F3E;fillColor=#ED7100;strokeColor=#ffffff;dashed=0;verticalLabelPosition=bottom;verticalAlign=top;align=center;html=1;fontSize=12;fontStyle=0;aspect=fixed;shape=mxgraph.aws4.resourceIcon;resIcon=mxgraph.aws4.eks;" parent="1" vertex="1">
          <mxGeometry x="380" y="360" width="70" height="70" as="geometry" />
        </mxCell>
        <mxCell id="Tve4zQf0PNMW8JrAq_sR-15" value="" style="aspect=fixed;sketch=0;html=1;dashed=0;whitespace=wrap;fillColor=#2875E2;strokeColor=#ffffff;points=[[0.005,0.63,0],[0.1,0.2,0],[0.9,0.2,0],[0.5,0,0],[0.995,0.63,0],[0.72,0.99,0],[0.5,1,0],[0.28,0.99,0]];shape=mxgraph.kubernetes.icon2;kubernetesLabel=1;prIcon=node" parent="1" vertex="1">
          <mxGeometry x="365" y="220" width="60" height="50" as="geometry" />
        </mxCell>
        <mxCell id="Tve4zQf0PNMW8JrAq_sR-25" value="" style="rounded=1;whiteSpace=wrap;html=1;dashed=1;" parent="1" vertex="1">
          <mxGeometry x="460" y="200" width="190" height="100" as="geometry" />
        </mxCell>
        <mxCell id="Tve4zQf0PNMW8JrAq_sR-30" style="edgeStyle=orthogonalEdgeStyle;rounded=0;orthogonalLoop=1;jettySize=auto;html=1;endArrow=block;endFill=1;startArrow=classicThin;startFill=1;" parent="1" source="Tve4zQf0PNMW8JrAq_sR-23" target="Tve4zQf0PNMW8JrAq_sR-25" edge="1">
          <mxGeometry relative="1" as="geometry" />
        </mxCell>
        <mxCell id="Tve4zQf0PNMW8JrAq_sR-23" value="AWS DynamoDB" style="outlineConnect=0;dashed=0;verticalLabelPosition=bottom;verticalAlign=top;align=center;html=1;shape=mxgraph.aws3.dynamo_db;fillColor=#2E73B8;gradientColor=none;" parent="1" vertex="1">
          <mxGeometry x="520" y="90" width="70" height="80" as="geometry" />
        </mxCell>
        <mxCell id="Tve4zQf0PNMW8JrAq_sR-8" value="" style="aspect=fixed;sketch=0;html=1;dashed=0;whitespace=wrap;fillColor=#2875E2;strokeColor=#ffffff;points=[[0.005,0.63,0],[0.1,0.2,0],[0.9,0.2,0],[0.5,0,0],[0.995,0.63,0],[0.72,0.99,0],[0.5,1,0],[0.28,0.99,0]];shape=mxgraph.kubernetes.icon2;kubernetesLabel=1;prIcon=node" parent="1" vertex="1">
          <mxGeometry x="570" y="210" width="80" height="80" as="geometry" />
        </mxCell>
        <mxCell id="Tve4zQf0PNMW8JrAq_sR-14" value="" style="aspect=fixed;sketch=0;html=1;dashed=0;whitespace=wrap;fillColor=#2875E2;strokeColor=#ffffff;points=[[0.005,0.63,0],[0.1,0.2,0],[0.9,0.2,0],[0.5,0,0],[0.995,0.63,0],[0.72,0.99,0],[0.5,1,0],[0.28,0.99,0]];shape=mxgraph.kubernetes.icon2;kubernetesLabel=1;prIcon=node" parent="1" vertex="1">
          <mxGeometry x="470" y="210" width="80" height="80" as="geometry" />
        </mxCell>
        <mxCell id="Tve4zQf0PNMW8JrAq_sR-28" style="edgeStyle=orthogonalEdgeStyle;rounded=0;orthogonalLoop=1;jettySize=auto;html=1;entryX=0.5;entryY=1;entryDx=0;entryDy=0;startArrow=classicThin;startFill=1;" parent="1" source="Tve4zQf0PNMW8JrAq_sR-26" target="Tve4zQf0PNMW8JrAq_sR-25" edge="1">
          <mxGeometry relative="1" as="geometry" />
        </mxCell>
        <mxCell id="Tve4zQf0PNMW8JrAq_sR-26" value="" style="outlineConnect=0;dashed=0;verticalLabelPosition=bottom;verticalAlign=top;align=center;html=1;shape=mxgraph.aws3.application_load_balancer;fillColor=#F58534;gradientColor=none;" parent="1" vertex="1">
          <mxGeometry x="530" y="360" width="60" height="70" as="geometry" />
        </mxCell>
        <mxCell id="Tve4zQf0PNMW8JrAq_sR-27" style="edgeStyle=orthogonalEdgeStyle;rounded=0;orthogonalLoop=1;jettySize=auto;html=1;entryX=0;entryY=0.5;entryDx=0;entryDy=0;entryPerimeter=0;" parent="1" source="Tve4zQf0PNMW8JrAq_sR-4" target="Tve4zQf0PNMW8JrAq_sR-26" edge="1">
          <mxGeometry relative="1" as="geometry" />
        </mxCell>
        <mxCell id="Tve4zQf0PNMW8JrAq_sR-32" value="" style="rounded=1;whiteSpace=wrap;html=1;dashed=1;flipV=0;flipH=0;" parent="1" vertex="1">
          <mxGeometry x="360" y="546" width="300" height="390" as="geometry" />
        </mxCell>
        <mxCell id="Tve4zQf0PNMW8JrAq_sR-33" value="EKS Cluster" style="sketch=0;points=[[0,0,0],[0.25,0,0],[0.5,0,0],[0.75,0,0],[1,0,0],[0,1,0],[0.25,1,0],[0.5,1,0],[0.75,1,0],[1,1,0],[0,0.25,0],[0,0.5,0],[0,0.75,0],[1,0.25,0],[1,0.5,0],[1,0.75,0]];outlineConnect=0;fontColor=#232F3E;fillColor=#ED7100;strokeColor=#ffffff;dashed=0;verticalLabelPosition=bottom;verticalAlign=top;align=center;html=1;fontSize=12;fontStyle=0;aspect=fixed;shape=mxgraph.aws4.resourceIcon;resIcon=mxgraph.aws4.eks;flipV=0;flipH=0;" parent="1" vertex="1">
          <mxGeometry x="385" y="576" width="70" height="70" as="geometry" />
        </mxCell>
        <mxCell id="Tve4zQf0PNMW8JrAq_sR-34" value="" style="aspect=fixed;sketch=0;html=1;dashed=0;whitespace=wrap;fillColor=#2875E2;strokeColor=#ffffff;points=[[0.005,0.63,0],[0.1,0.2,0],[0.9,0.2,0],[0.5,0,0],[0.995,0.63,0],[0.72,0.99,0],[0.5,1,0],[0.28,0.99,0]];shape=mxgraph.kubernetes.icon2;kubernetesLabel=1;prIcon=node;flipV=0;flipH=0;" parent="1" vertex="1">
          <mxGeometry x="365" y="696" width="60" height="50" as="geometry" />
        </mxCell>
        <mxCell id="Tve4zQf0PNMW8JrAq_sR-35" value="" style="rounded=1;whiteSpace=wrap;html=1;dashed=1;flipV=0;flipH=0;" parent="1" vertex="1">
          <mxGeometry x="460" y="676" width="190" height="100" as="geometry" />
        </mxCell>
        <mxCell id="Tve4zQf0PNMW8JrAq_sR-45" style="edgeStyle=orthogonalEdgeStyle;rounded=0;orthogonalLoop=1;jettySize=auto;html=1;entryX=0.5;entryY=1;entryDx=0;entryDy=0;startArrow=classic;startFill=1;" parent="1" source="Tve4zQf0PNMW8JrAq_sR-37" target="Tve4zQf0PNMW8JrAq_sR-35" edge="1">
          <mxGeometry relative="1" as="geometry" />
        </mxCell>
        <mxCell id="Tve4zQf0PNMW8JrAq_sR-37" value="AWS DynamoDB" style="outlineConnect=0;dashed=0;verticalLabelPosition=bottom;verticalAlign=top;align=center;html=1;shape=mxgraph.aws3.dynamo_db;fillColor=#2E73B8;gradientColor=none;flipV=0;flipH=0;" parent="1" vertex="1">
          <mxGeometry x="520" y="826" width="70" height="80" as="geometry" />
        </mxCell>
        <mxCell id="Tve4zQf0PNMW8JrAq_sR-38" value="" style="aspect=fixed;sketch=0;html=1;dashed=0;whitespace=wrap;fillColor=#2875E2;strokeColor=#ffffff;points=[[0.005,0.63,0],[0.1,0.2,0],[0.9,0.2,0],[0.5,0,0],[0.995,0.63,0],[0.72,0.99,0],[0.5,1,0],[0.28,0.99,0]];shape=mxgraph.kubernetes.icon2;kubernetesLabel=1;prIcon=node;flipV=0;flipH=0;" parent="1" vertex="1">
          <mxGeometry x="560" y="686" width="80" height="80" as="geometry" />
        </mxCell>
        <mxCell id="Tve4zQf0PNMW8JrAq_sR-39" value="" style="aspect=fixed;sketch=0;html=1;dashed=0;whitespace=wrap;fillColor=#2875E2;strokeColor=#ffffff;points=[[0.005,0.63,0],[0.1,0.2,0],[0.9,0.2,0],[0.5,0,0],[0.995,0.63,0],[0.72,0.99,0],[0.5,1,0],[0.28,0.99,0]];shape=mxgraph.kubernetes.icon2;kubernetesLabel=1;prIcon=node;flipV=0;flipH=0;" parent="1" vertex="1">
          <mxGeometry x="470" y="686" width="80" height="80" as="geometry" />
        </mxCell>
        <mxCell id="Tve4zQf0PNMW8JrAq_sR-44" style="edgeStyle=orthogonalEdgeStyle;rounded=0;orthogonalLoop=1;jettySize=auto;html=1;entryX=0.5;entryY=0;entryDx=0;entryDy=0;startArrow=classic;startFill=1;" parent="1" source="Tve4zQf0PNMW8JrAq_sR-41" target="Tve4zQf0PNMW8JrAq_sR-35" edge="1">
          <mxGeometry relative="1" as="geometry" />
        </mxCell>
        <mxCell id="Tve4zQf0PNMW8JrAq_sR-41" value="" style="outlineConnect=0;dashed=0;verticalLabelPosition=bottom;verticalAlign=top;align=center;html=1;shape=mxgraph.aws3.application_load_balancer;fillColor=#F58534;gradientColor=none;flipV=0;flipH=0;" parent="1" vertex="1">
          <mxGeometry x="525" y="576" width="60" height="70" as="geometry" />
        </mxCell>
        <mxCell id="Tve4zQf0PNMW8JrAq_sR-42" style="edgeStyle=orthogonalEdgeStyle;rounded=0;orthogonalLoop=1;jettySize=auto;html=1;entryX=0;entryY=0.5;entryDx=0;entryDy=0;entryPerimeter=0;" parent="1" source="Tve4zQf0PNMW8JrAq_sR-33" target="Tve4zQf0PNMW8JrAq_sR-41" edge="1">
          <mxGeometry relative="1" as="geometry" />
        </mxCell>
        <mxCell id="Tve4zQf0PNMW8JrAq_sR-48" style="edgeStyle=orthogonalEdgeStyle;rounded=0;orthogonalLoop=1;jettySize=auto;html=1;entryX=-0.004;entryY=0.449;entryDx=0;entryDy=0;entryPerimeter=0;dashed=1;startArrow=classic;startFill=1;" parent="1" source="Tve4zQf0PNMW8JrAq_sR-15" target="Tve4zQf0PNMW8JrAq_sR-25" edge="1">
          <mxGeometry relative="1" as="geometry" />
        </mxCell>
        <mxCell id="Tve4zQf0PNMW8JrAq_sR-49" style="edgeStyle=orthogonalEdgeStyle;rounded=0;orthogonalLoop=1;jettySize=auto;html=1;entryX=0.001;entryY=0.449;entryDx=0;entryDy=0;entryPerimeter=0;startArrow=classic;startFill=1;dashed=1;" parent="1" source="Tve4zQf0PNMW8JrAq_sR-34" target="Tve4zQf0PNMW8JrAq_sR-35" edge="1">
          <mxGeometry relative="1" as="geometry" />
        </mxCell>
        <mxCell id="Tve4zQf0PNMW8JrAq_sR-50" style="edgeStyle=orthogonalEdgeStyle;rounded=0;orthogonalLoop=1;jettySize=auto;html=1;entryX=0.193;entryY=0.999;entryDx=0;entryDy=0;entryPerimeter=0;" parent="1" edge="1">
          <mxGeometry relative="1" as="geometry">
            <mxPoint x="314" y="490.03999999999996" as="sourcePoint" />
            <mxPoint x="412.9000000000001" y="459.6100000000001" as="targetPoint" />
            <Array as="points">
              <mxPoint x="413" y="490" />
            </Array>
          </mxGeometry>
        </mxCell>
        <mxCell id="Tve4zQf0PNMW8JrAq_sR-51" style="edgeStyle=orthogonalEdgeStyle;rounded=0;orthogonalLoop=1;jettySize=auto;html=1;entryX=0.206;entryY=0.001;entryDx=0;entryDy=0;entryPerimeter=0;" parent="1" source="Tve4zQf0PNMW8JrAq_sR-2" target="Tve4zQf0PNMW8JrAq_sR-32" edge="1">
          <mxGeometry relative="1" as="geometry">
            <Array as="points">
              <mxPoint x="380" y="510" />
              <mxPoint x="380" y="510" />
            </Array>
          </mxGeometry>
        </mxCell>
        <mxCell id="Tve4zQf0PNMW8JrAq_sR-52" value="Internal ALB" style="text;html=1;align=center;verticalAlign=middle;whiteSpace=wrap;rounded=0;" parent="1" vertex="1">
          <mxGeometry x="500" y="550" width="100" height="30" as="geometry" />
        </mxCell>
        <mxCell id="Tve4zQf0PNMW8JrAq_sR-53" value="n&lt;span style=&quot;background-color: initial;&quot;&gt;ode-group-1b&lt;/span&gt;" style="text;html=1;align=center;verticalAlign=middle;resizable=0;points=[];autosize=1;strokeColor=none;fillColor=none;" parent="1" vertex="1">
          <mxGeometry x="457" y="774" width="100" height="30" as="geometry" />
        </mxCell>
        <mxCell id="Tve4zQf0PNMW8JrAq_sR-54" value="bk-n&lt;span style=&quot;background-color: initial;&quot;&gt;ode-1b&lt;/span&gt;" style="text;html=1;align=center;verticalAlign=middle;resizable=0;points=[];autosize=1;strokeColor=none;fillColor=none;" parent="1" vertex="1">
          <mxGeometry x="365" y="746" width="80" height="30" as="geometry" />
        </mxCell>
        <mxCell id="Tve4zQf0PNMW8JrAq_sR-55" value="Internal ALB" style="text;html=1;align=center;verticalAlign=middle;whiteSpace=wrap;rounded=0;" parent="1" vertex="1">
          <mxGeometry x="510" y="430" width="100" height="30" as="geometry" />
        </mxCell>
        <mxCell id="Tve4zQf0PNMW8JrAq_sR-57" value="n&lt;span style=&quot;background-color: initial;&quot;&gt;ode-group-1a&lt;/span&gt;" style="text;html=1;align=center;verticalAlign=middle;resizable=0;points=[];autosize=1;strokeColor=none;fillColor=none;" parent="1" vertex="1">
          <mxGeometry x="455" y="300" width="100" height="30" as="geometry" />
        </mxCell>
        <mxCell id="Tve4zQf0PNMW8JrAq_sR-58" value="bk-n&lt;span style=&quot;background-color: initial;&quot;&gt;ode-1b&lt;/span&gt;" style="text;html=1;align=center;verticalAlign=middle;resizable=0;points=[];autosize=1;strokeColor=none;fillColor=none;" parent="1" vertex="1">
          <mxGeometry x="365" y="270" width="80" height="30" as="geometry" />
        </mxCell>
        <mxCell id="Tve4zQf0PNMW8JrAq_sR-59" value="us-east-1" style="text;html=1;align=center;verticalAlign=middle;resizable=0;points=[];autosize=1;strokeColor=#6c8ebf;fillColor=#dae8fc;" parent="1" vertex="1">
          <mxGeometry x="385" y="90" width="70" height="30" as="geometry" />
        </mxCell>
        <mxCell id="Tve4zQf0PNMW8JrAq_sR-60" value="us-west-1" style="text;html=1;align=center;verticalAlign=middle;resizable=0;points=[];autosize=1;strokeColor=#6c8ebf;fillColor=#dae8fc;" parent="1" vertex="1">
          <mxGeometry x="385" y="890" width="80" height="30" as="geometry" />
        </mxCell>
        <mxCell id="Tve4zQf0PNMW8JrAq_sR-64" value="" style="rounded=1;whiteSpace=wrap;html=1;" parent="1" vertex="1">
          <mxGeometry x="1087" y="190" width="430" height="510" as="geometry" />
        </mxCell>
        <mxCell id="Tve4zQf0PNMW8JrAq_sR-61" value="" style="aspect=fixed;sketch=0;html=1;dashed=0;whitespace=wrap;fillColor=#2875E2;strokeColor=#ffffff;points=[[0.005,0.63,0],[0.1,0.2,0],[0.9,0.2,0],[0.5,0,0],[0.995,0.63,0],[0.72,0.99,0],[0.5,1,0],[0.28,0.99,0]];shape=mxgraph.kubernetes.icon2;kubernetesLabel=1;prIcon=node" parent="1" vertex="1">
          <mxGeometry x="1034" y="390" width="110" height="110" as="geometry" />
        </mxCell>
        <mxCell id="Tve4zQf0PNMW8JrAq_sR-71" style="edgeStyle=orthogonalEdgeStyle;rounded=0;orthogonalLoop=1;jettySize=auto;html=1;" parent="1" source="Tve4zQf0PNMW8JrAq_sR-65" target="Tve4zQf0PNMW8JrAq_sR-66" edge="1">
          <mxGeometry relative="1" as="geometry">
            <Array as="points">
              <mxPoint x="1222" y="243" />
            </Array>
          </mxGeometry>
        </mxCell>
        <mxCell id="Tve4zQf0PNMW8JrAq_sR-72" style="edgeStyle=orthogonalEdgeStyle;rounded=0;orthogonalLoop=1;jettySize=auto;html=1;" parent="1" source="Tve4zQf0PNMW8JrAq_sR-65" target="Tve4zQf0PNMW8JrAq_sR-68" edge="1">
          <mxGeometry relative="1" as="geometry" />
        </mxCell>
        <mxCell id="Tve4zQf0PNMW8JrAq_sR-73" style="edgeStyle=orthogonalEdgeStyle;rounded=0;orthogonalLoop=1;jettySize=auto;html=1;" parent="1" source="Tve4zQf0PNMW8JrAq_sR-65" target="Tve4zQf0PNMW8JrAq_sR-70" edge="1">
          <mxGeometry relative="1" as="geometry">
            <Array as="points">
              <mxPoint x="1222" y="633" />
            </Array>
          </mxGeometry>
        </mxCell>
        <mxCell id="Tve4zQf0PNMW8JrAq_sR-65" value="&lt;div&gt;&lt;br&gt;&lt;/div&gt;" style="outlineConnect=0;dashed=0;verticalLabelPosition=bottom;verticalAlign=top;align=center;html=1;shape=mxgraph.aws3.android;fillColor=#8CC64F;gradientColor=none;" parent="1" vertex="1">
          <mxGeometry x="1187" y="393" width="70" height="80" as="geometry" />
        </mxCell>
        <mxCell id="Tve4zQf0PNMW8JrAq_sR-66" value="" style="sketch=0;outlineConnect=0;fontColor=#232F3E;gradientColor=none;fillColor=#8C4FFF;strokeColor=none;dashed=0;verticalLabelPosition=bottom;verticalAlign=top;align=center;html=1;fontSize=12;fontStyle=0;aspect=fixed;pointerEvents=1;shape=mxgraph.aws4.endpoint;" parent="1" vertex="1">
          <mxGeometry x="1387" y="213" width="60" height="60" as="geometry" />
        </mxCell>
        <mxCell id="Tve4zQf0PNMW8JrAq_sR-67" value="" style="sketch=0;outlineConnect=0;fontColor=#232F3E;gradientColor=none;fillColor=#8C4FFF;strokeColor=none;dashed=0;verticalLabelPosition=bottom;verticalAlign=top;align=center;html=1;fontSize=12;fontStyle=0;aspect=fixed;pointerEvents=1;shape=mxgraph.aws4.endpoint;" parent="1" vertex="1">
          <mxGeometry x="1403" y="293" width="60" height="60" as="geometry" />
        </mxCell>
        <mxCell id="Tve4zQf0PNMW8JrAq_sR-68" value="" style="sketch=0;outlineConnect=0;fontColor=#232F3E;gradientColor=none;fillColor=#8C4FFF;strokeColor=none;dashed=0;verticalLabelPosition=bottom;verticalAlign=top;align=center;html=1;fontSize=12;fontStyle=0;aspect=fixed;pointerEvents=1;shape=mxgraph.aws4.endpoint;" parent="1" vertex="1">
          <mxGeometry x="1417" y="403" width="60" height="60" as="geometry" />
        </mxCell>
        <mxCell id="Tve4zQf0PNMW8JrAq_sR-69" value="" style="sketch=0;outlineConnect=0;fontColor=#232F3E;gradientColor=none;fillColor=#8C4FFF;strokeColor=none;dashed=0;verticalLabelPosition=bottom;verticalAlign=top;align=center;html=1;fontSize=12;fontStyle=0;aspect=fixed;pointerEvents=1;shape=mxgraph.aws4.endpoint;" parent="1" vertex="1">
          <mxGeometry x="1397" y="513" width="60" height="60" as="geometry" />
        </mxCell>
        <mxCell id="Tve4zQf0PNMW8JrAq_sR-70" value="" style="sketch=0;outlineConnect=0;fontColor=#232F3E;gradientColor=none;fillColor=#8C4FFF;strokeColor=none;dashed=0;verticalLabelPosition=bottom;verticalAlign=top;align=center;html=1;fontSize=12;fontStyle=0;aspect=fixed;pointerEvents=1;shape=mxgraph.aws4.endpoint;" parent="1" vertex="1">
          <mxGeometry x="1387" y="603" width="60" height="60" as="geometry" />
        </mxCell>
        <mxCell id="Tve4zQf0PNMW8JrAq_sR-74" value="" style="endArrow=classic;html=1;rounded=0;" parent="1" target="Tve4zQf0PNMW8JrAq_sR-67" edge="1">
          <mxGeometry width="50" height="50" relative="1" as="geometry">
            <mxPoint x="1257" y="413" as="sourcePoint" />
            <mxPoint x="1307" y="363" as="targetPoint" />
          </mxGeometry>
        </mxCell>
        <mxCell id="Tve4zQf0PNMW8JrAq_sR-75" value="" style="endArrow=classic;html=1;rounded=0;exitX=1;exitY=0.75;exitDx=0;exitDy=0;exitPerimeter=0;" parent="1" source="Tve4zQf0PNMW8JrAq_sR-65" target="Tve4zQf0PNMW8JrAq_sR-69" edge="1">
          <mxGeometry width="50" height="50" relative="1" as="geometry">
            <mxPoint x="1247" y="530" as="sourcePoint" />
            <mxPoint x="1377" y="473" as="targetPoint" />
          </mxGeometry>
        </mxCell>
        <mxCell id="Tve4zQf0PNMW8JrAq_sR-76" value="&lt;b&gt;Auth Endpoint&lt;/b&gt;" style="text;html=1;align=center;verticalAlign=middle;resizable=0;points=[];autosize=1;strokeColor=#82b366;fillColor=#d5e8d4;" parent="1" vertex="1">
          <mxGeometry x="1257" y="228" width="110" height="30" as="geometry" />
        </mxCell>
        <mxCell id="Tve4zQf0PNMW8JrAq_sR-77" value="&lt;b&gt;User Endpoint&lt;/b&gt;" style="text;html=1;align=center;verticalAlign=middle;resizable=0;points=[];autosize=1;strokeColor=#82b366;fillColor=#d5e8d4;" parent="1" vertex="1">
          <mxGeometry x="1267" y="363" width="110" height="30" as="geometry" />
        </mxCell>
        <mxCell id="Tve4zQf0PNMW8JrAq_sR-79" value="&lt;b&gt;File Endpoint&lt;/b&gt;" style="text;html=1;align=center;verticalAlign=middle;resizable=0;points=[];autosize=1;strokeColor=#82b366;fillColor=#d5e8d4;" parent="1" vertex="1">
          <mxGeometry x="1277" y="418" width="100" height="30" as="geometry" />
        </mxCell>
        <mxCell id="Tve4zQf0PNMW8JrAq_sR-81" value="&lt;b&gt;Encryption Endpoint&lt;/b&gt;" style="text;html=1;align=center;verticalAlign=middle;resizable=0;points=[];autosize=1;strokeColor=#82b366;fillColor=#d5e8d4;" parent="1" vertex="1">
          <mxGeometry x="1227" y="618" width="140" height="30" as="geometry" />
        </mxCell>
        <mxCell id="Tve4zQf0PNMW8JrAq_sR-83" value="&lt;b&gt;Admin Endpoint&lt;/b&gt;" style="text;html=1;align=center;verticalAlign=middle;resizable=0;points=[];autosize=1;strokeColor=#82b366;fillColor=#d5e8d4;" parent="1" vertex="1">
          <mxGeometry x="1257" y="473" width="120" height="30" as="geometry" />
        </mxCell>
        <mxCell id="Tve4zQf0PNMW8JrAq_sR-87" value="Code" style="image;aspect=fixed;html=1;points=[];align=center;fontSize=12;image=img/lib/azure2/general/Code.svg;" parent="1" vertex="1">
          <mxGeometry x="95" y="1361" width="64" height="52" as="geometry" />
        </mxCell>
        <mxCell id="Tve4zQf0PNMW8JrAq_sR-91" style="edgeStyle=orthogonalEdgeStyle;rounded=0;orthogonalLoop=1;jettySize=auto;html=1;" parent="1" source="Tve4zQf0PNMW8JrAq_sR-89" edge="1">
          <mxGeometry relative="1" as="geometry">
            <mxPoint x="345" y="1379" as="targetPoint" />
          </mxGeometry>
        </mxCell>
        <mxCell id="Tve4zQf0PNMW8JrAq_sR-89" value="Pushed to GIT" style="shape=image;html=1;verticalAlign=top;verticalLabelPosition=bottom;labelBackgroundColor=#ffffff;imageAspect=0;aspect=fixed;image=https://cdn4.iconfinder.com/data/icons/ionicons/512/icon-social-github-128.png" parent="1" vertex="1">
          <mxGeometry x="225" y="1345" width="68" height="68" as="geometry" />
        </mxCell>
        <mxCell id="Tve4zQf0PNMW8JrAq_sR-90" style="edgeStyle=orthogonalEdgeStyle;rounded=0;orthogonalLoop=1;jettySize=auto;html=1;entryX=-0.032;entryY=0.603;entryDx=0;entryDy=0;entryPerimeter=0;" parent="1" source="Tve4zQf0PNMW8JrAq_sR-87" target="Tve4zQf0PNMW8JrAq_sR-89" edge="1">
          <mxGeometry relative="1" as="geometry" />
        </mxCell>
        <mxCell id="Tve4zQf0PNMW8JrAq_sR-95" style="edgeStyle=orthogonalEdgeStyle;rounded=0;orthogonalLoop=1;jettySize=auto;html=1;entryX=0;entryY=0.5;entryDx=0;entryDy=0;" parent="1" source="Tve4zQf0PNMW8JrAq_sR-93" target="Tve4zQf0PNMW8JrAq_sR-94" edge="1">
          <mxGeometry relative="1" as="geometry">
            <Array as="points">
              <mxPoint x="650" y="1379" />
              <mxPoint x="650" y="1540" />
              <mxPoint x="140" y="1540" />
              <mxPoint x="140" y="1729" />
            </Array>
          </mxGeometry>
        </mxCell>
        <mxCell id="Tve4zQf0PNMW8JrAq_sR-96" value="" style="rounded=1;whiteSpace=wrap;html=1;dashed=1;" parent="1" vertex="1">
          <mxGeometry x="365" y="1231" width="200" height="280" as="geometry" />
        </mxCell>
        <mxCell id="Tve4zQf0PNMW8JrAq_sR-93" value="&lt;font color=&quot;#000000&quot;&gt;GitHub Action&lt;br&gt;Performing CI&lt;/font&gt;" style="image;aspect=fixed;perimeter=ellipsePerimeter;html=1;align=center;shadow=0;dashed=0;fontColor=#4277BB;labelBackgroundColor=default;fontSize=12;spacingTop=3;image=img/lib/ibm/devops/build_test.svg;" parent="1" vertex="1">
          <mxGeometry x="345" y="1349" width="60" height="60" as="geometry" />
        </mxCell>
        <mxCell id="Tve4zQf0PNMW8JrAq_sR-97" value="Scan&amp;nbsp;" style="shadow=0;dashed=0;html=1;strokeColor=none;fillColor=#4495D1;labelPosition=center;verticalLabelPosition=bottom;verticalAlign=top;align=center;outlineConnect=0;shape=mxgraph.veeam.magnifying_glass;pointerEvents=1;" parent="1" vertex="1">
          <mxGeometry x="439.41" y="1251" width="40.59" height="40" as="geometry" />
        </mxCell>
        <mxCell id="Tve4zQf0PNMW8JrAq_sR-98" value="run test case" style="image;aspect=fixed;html=1;points=[];align=center;fontSize=12;image=img/lib/azure2/other/Test_Base.svg;" parent="1" vertex="1">
          <mxGeometry x="430.5" y="1349" width="59.5" height="42" as="geometry" />
        </mxCell>
        <mxCell id="Tve4zQf0PNMW8JrAq_sR-100" value="validate" style="sketch=0;html=1;aspect=fixed;strokeColor=none;shadow=0;align=center;fillColor=#2D9C5E;verticalAlign=top;labelPosition=center;verticalLabelPosition=bottom;shape=mxgraph.gcp2.check" parent="1" vertex="1">
          <mxGeometry x="447.25" y="1461" width="35.5" height="28.4" as="geometry" />
        </mxCell>
        <mxCell id="Tve4zQf0PNMW8JrAq_sR-103" value="" style="rounded=1;whiteSpace=wrap;html=1;dashed=1;" parent="1" vertex="1">
          <mxGeometry x="205" y="1580" width="340" height="280" as="geometry" />
        </mxCell>
        <mxCell id="Tve4zQf0PNMW8JrAq_sR-94" value="&lt;font color=&quot;#000000&quot;&gt;GitHub Action&lt;br&gt;Performing CD&lt;/font&gt;" style="image;aspect=fixed;perimeter=ellipsePerimeter;html=1;align=center;shadow=0;dashed=0;fontColor=#4277BB;labelBackgroundColor=default;fontSize=12;spacingTop=3;image=img/lib/ibm/devops/build_test.svg;" parent="1" vertex="1">
          <mxGeometry x="185" y="1699" width="60" height="60" as="geometry" />
        </mxCell>
        <mxCell id="Tve4zQf0PNMW8JrAq_sR-101" style="edgeStyle=orthogonalEdgeStyle;rounded=0;orthogonalLoop=1;jettySize=auto;html=1;entryX=0.369;entryY=0.44;entryDx=0;entryDy=0;entryPerimeter=0;" parent="1" edge="1">
          <mxGeometry relative="1" as="geometry">
            <mxPoint x="460" y="1417" as="sourcePoint" />
            <mxPoint x="460.3494999999998" y="1469.496" as="targetPoint" />
          </mxGeometry>
        </mxCell>
        <mxCell id="Tve4zQf0PNMW8JrAq_sR-102" value="" style="endArrow=classic;html=1;rounded=0;" parent="1" edge="1">
          <mxGeometry width="50" height="50" relative="1" as="geometry">
            <mxPoint x="460" y="1319" as="sourcePoint" />
            <mxPoint x="460.1428571428569" y="1347" as="targetPoint" />
          </mxGeometry>
        </mxCell>
        <mxCell id="Tve4zQf0PNMW8JrAq_sR-104" value="AWS ECR" style="outlineConnect=0;dashed=0;verticalLabelPosition=bottom;verticalAlign=top;align=center;html=1;shape=mxgraph.aws3.ecr;fillColor=#F58534;gradientColor=none;" parent="1" vertex="1">
          <mxGeometry x="465" y="1615.9399999999998" width="49" height="51.13" as="geometry" />
        </mxCell>
        <mxCell id="Tve4zQf0PNMW8JrAq_sR-105" value="Build docker image" style="image;sketch=0;aspect=fixed;html=1;points=[];align=center;fontSize=12;image=img/lib/mscae/Docker.svg;" parent="1" vertex="1">
          <mxGeometry x="265" y="1621" width="50" height="41" as="geometry" />
        </mxCell>
        <mxCell id="Tve4zQf0PNMW8JrAq_sR-106" style="edgeStyle=orthogonalEdgeStyle;rounded=0;orthogonalLoop=1;jettySize=auto;html=1;entryX=0;entryY=0.5;entryDx=0;entryDy=0;entryPerimeter=0;" parent="1" source="Tve4zQf0PNMW8JrAq_sR-105" target="Tve4zQf0PNMW8JrAq_sR-104" edge="1">
          <mxGeometry relative="1" as="geometry" />
        </mxCell>
        <mxCell id="Tve4zQf0PNMW8JrAq_sR-107" value="push to ECR" style="edgeLabel;html=1;align=center;verticalAlign=middle;resizable=0;points=[];" parent="Tve4zQf0PNMW8JrAq_sR-106" vertex="1" connectable="0">
          <mxGeometry x="-0.01" relative="1" as="geometry">
            <mxPoint as="offset" />
          </mxGeometry>
        </mxCell>
        <mxCell id="Tve4zQf0PNMW8JrAq_sR-108" value="AWS EKS" style="sketch=0;points=[[0,0,0],[0.25,0,0],[0.5,0,0],[0.75,0,0],[1,0,0],[0,1,0],[0.25,1,0],[0.5,1,0],[0.75,1,0],[1,1,0],[0,0.25,0],[0,0.5,0],[0,0.75,0],[1,0.25,0],[1,0.5,0],[1,0.75,0]];outlineConnect=0;fontColor=#232F3E;fillColor=#ED7100;strokeColor=#ffffff;dashed=0;verticalLabelPosition=bottom;verticalAlign=top;align=center;html=1;fontSize=12;fontStyle=0;aspect=fixed;shape=mxgraph.aws4.resourceIcon;resIcon=mxgraph.aws4.eks;" parent="1" vertex="1">
          <mxGeometry x="460.5" y="1753" width="58" height="58" as="geometry" />
        </mxCell>
        <mxCell id="Tve4zQf0PNMW8JrAq_sR-109" style="edgeStyle=orthogonalEdgeStyle;rounded=0;orthogonalLoop=1;jettySize=auto;html=1;entryX=0.5;entryY=0;entryDx=0;entryDy=0;entryPerimeter=0;" parent="1" source="Tve4zQf0PNMW8JrAq_sR-104" target="Tve4zQf0PNMW8JrAq_sR-108" edge="1">
          <mxGeometry relative="1" as="geometry" />
        </mxCell>
        <mxCell id="Tve4zQf0PNMW8JrAq_sR-110" value="Trigger push to EKS&lt;br&gt;Cluster" style="edgeLabel;html=1;align=center;verticalAlign=middle;resizable=0;points=[];" parent="Tve4zQf0PNMW8JrAq_sR-109" vertex="1" connectable="0">
          <mxGeometry x="0.0806" relative="1" as="geometry">
            <mxPoint as="offset" />
          </mxGeometry>
        </mxCell>
        <mxCell id="Tve4zQf0PNMW8JrAq_sR-111" value="" style="aspect=fixed;sketch=0;html=1;dashed=0;whitespace=wrap;fillColor=#2875E2;strokeColor=#ffffff;points=[[0.005,0.63,0],[0.1,0.2,0],[0.9,0.2,0],[0.5,0,0],[0.995,0.63,0],[0.72,0.99,0],[0.5,1,0],[0.28,0.99,0]];shape=mxgraph.kubernetes.icon2;kubernetesLabel=1;prIcon=node" parent="1" vertex="1">
          <mxGeometry x="345" y="1759" width="60" height="60" as="geometry" />
        </mxCell>
        <mxCell id="Tve4zQf0PNMW8JrAq_sR-113" style="edgeStyle=orthogonalEdgeStyle;rounded=0;orthogonalLoop=1;jettySize=auto;html=1;entryX=0.005;entryY=0.63;entryDx=0;entryDy=0;entryPerimeter=0;" parent="1" source="Tve4zQf0PNMW8JrAq_sR-111" target="Tve4zQf0PNMW8JrAq_sR-111" edge="1">
          <mxGeometry relative="1" as="geometry">
            <Array as="points">
              <mxPoint x="375" y="1739" />
              <mxPoint x="325" y="1739" />
              <mxPoint x="325" y="1797" />
            </Array>
          </mxGeometry>
        </mxCell>
        <mxCell id="Tve4zQf0PNMW8JrAq_sR-118" value="Blue green&lt;br&gt;Deployement" style="edgeLabel;html=1;align=center;verticalAlign=middle;resizable=0;points=[];" parent="Tve4zQf0PNMW8JrAq_sR-113" vertex="1" connectable="0">
          <mxGeometry x="-0.1989" y="3" relative="1" as="geometry">
            <mxPoint as="offset" />
          </mxGeometry>
        </mxCell>
        <mxCell id="Tve4zQf0PNMW8JrAq_sR-114" style="edgeStyle=orthogonalEdgeStyle;rounded=0;orthogonalLoop=1;jettySize=auto;html=1;entryX=0.922;entryY=0.394;entryDx=0;entryDy=0;entryPerimeter=0;" parent="1" source="Tve4zQf0PNMW8JrAq_sR-108" target="Tve4zQf0PNMW8JrAq_sR-111" edge="1">
          <mxGeometry relative="1" as="geometry" />
        </mxCell>
        <mxCell id="Tve4zQf0PNMW8JrAq_sR-115" value="Restart&lt;br&gt;Node" style="edgeLabel;html=1;align=center;verticalAlign=middle;resizable=0;points=[];" parent="Tve4zQf0PNMW8JrAq_sR-114" vertex="1" connectable="0">
          <mxGeometry x="-0.0866" y="-1" relative="1" as="geometry">
            <mxPoint y="-1" as="offset" />
          </mxGeometry>
        </mxCell>
        <mxCell id="Tve4zQf0PNMW8JrAq_sR-116" value="complete" style="sketch=0;html=1;aspect=fixed;strokeColor=none;shadow=0;align=center;fillColor=#2D9C5E;verticalAlign=top;labelPosition=center;verticalLabelPosition=bottom;shape=mxgraph.gcp2.check" parent="1" vertex="1">
          <mxGeometry x="629.5" y="1699" width="35.5" height="28.4" as="geometry" />
        </mxCell>
        <mxCell id="Tve4zQf0PNMW8JrAq_sR-117" style="edgeStyle=orthogonalEdgeStyle;rounded=0;orthogonalLoop=1;jettySize=auto;html=1;entryX=0.07;entryY=0.739;entryDx=0;entryDy=0;entryPerimeter=0;" parent="1" source="Tve4zQf0PNMW8JrAq_sR-103" target="Tve4zQf0PNMW8JrAq_sR-116" edge="1">
          <mxGeometry relative="1" as="geometry" />
        </mxCell>
        <mxCell id="Tve4zQf0PNMW8JrAq_sR-121" value="replica-set" style="outlineConnect=0;dashed=0;verticalLabelPosition=bottom;verticalAlign=top;align=center;html=1;shape=mxgraph.aws3.dynamo_db;fillColor=#2E73B8;gradientColor=none;" parent="1" vertex="1">
          <mxGeometry x="643" y="105" width="43.75" height="50" as="geometry" />
        </mxCell>
        <mxCell id="Tve4zQf0PNMW8JrAq_sR-122" style="edgeStyle=orthogonalEdgeStyle;rounded=0;orthogonalLoop=1;jettySize=auto;html=1;entryX=0;entryY=0.5;entryDx=0;entryDy=0;entryPerimeter=0;startArrow=classicThin;startFill=1;" parent="1" source="Tve4zQf0PNMW8JrAq_sR-23" target="Tve4zQf0PNMW8JrAq_sR-121" edge="1">
          <mxGeometry relative="1" as="geometry" />
        </mxCell>
        <mxCell id="WKy_ZpI6OW52hNlUH5AJ-1" value="&lt;font style=&quot;font-size: 17px;&quot;&gt;&lt;b&gt;CI-CD Pipeline&lt;/b&gt;&lt;/font&gt;" style="text;html=1;align=center;verticalAlign=middle;resizable=0;points=[];autosize=1;strokeColor=none;fillColor=none;" vertex="1" parent="1">
          <mxGeometry x="60" y="1178" width="140" height="30" as="geometry" />
        </mxCell>
        <mxCell id="WKy_ZpI6OW52hNlUH5AJ-2" value="&lt;font style=&quot;font-size: 17px;&quot;&gt;&lt;b&gt;Deployment Strategy&lt;/b&gt;&lt;/font&gt;" style="text;html=1;align=center;verticalAlign=middle;resizable=0;points=[];autosize=1;strokeColor=none;fillColor=none;" vertex="1" parent="1">
          <mxGeometry x="32" y="60" width="190" height="30" as="geometry" />
        </mxCell>
        <mxCell id="WKy_ZpI6OW52hNlUH5AJ-3" value="&lt;font style=&quot;font-size: 17px;&quot;&gt;&lt;b&gt;Each K8 Node&lt;/b&gt;&lt;/font&gt;" style="text;html=1;align=center;verticalAlign=middle;resizable=0;points=[];autosize=1;strokeColor=none;fillColor=none;" vertex="1" parent="1">
          <mxGeometry x="945" y="60" width="140" height="30" as="geometry" />
        </mxCell>
      </root>
    </mxGraphModel>
  </diagram>
</mxfile>
